<svg width="183" height="183" viewBox="0 0 183 183" fill="none" xmlns="http://www.w3.org/2000/svg">
<g clip-path="url(#clip0_11003_45)">
<path d="M120.201 30.5C124.448 30.5001 128.612 31.6829 132.225 33.9158C135.838 36.1486 138.759 39.3434 140.659 43.1422L151.204 64.2254C153.065 63.4629 154.917 62.6927 156.717 61.8006C158.527 60.8967 160.622 60.7487 162.541 61.3893C164.46 62.03 166.046 63.4067 166.95 65.2166C167.854 67.0266 168.002 69.1215 167.361 71.0405C166.72 72.9595 165.344 74.5454 163.534 75.4494C159.767 77.3251 158.044 77.9046 158.044 77.9046L165.333 92.4912C166.927 95.6709 167.75 99.1707 167.75 102.724V122C167.755 125.219 167.078 128.403 165.764 131.341C164.45 134.28 162.528 136.907 160.125 139.049V148.687C160.125 151.721 158.92 154.63 156.775 156.775C154.63 158.92 151.721 160.125 148.688 160.125C145.654 160.125 142.745 158.92 140.6 156.775C138.455 154.63 137.25 151.721 137.25 148.687V144.875H45.7504V148.687C45.7504 151.721 44.5454 154.63 42.4004 156.775C40.2555 158.92 37.3463 160.125 34.3129 160.125C31.2795 160.125 28.3703 158.92 26.2253 156.775C24.0804 154.63 22.8754 151.721 22.8754 148.687V139.049C18.1936 134.856 15.2504 128.771 15.2504 122V102.724C15.2518 99.1742 16.0793 95.6735 17.6675 92.4989L24.957 77.9046C23.1101 77.1387 21.2845 76.3225 19.4822 75.457C18.5835 75.0111 17.7816 74.3922 17.1224 73.6358C16.4633 72.8794 15.9599 72.0003 15.6412 71.049C15.3224 70.0977 15.1945 69.0928 15.2649 68.092C15.3352 67.0911 15.6023 66.114 16.051 65.2166C16.9749 63.4161 18.5698 62.0511 20.4914 61.4163C22.413 60.7814 24.5072 60.9277 26.3219 61.8235C28.1137 62.6927 29.9514 63.4781 31.7966 64.2254L42.342 43.1422C44.242 39.3434 47.1623 36.1486 50.7755 33.9158C54.3888 31.6829 58.5524 30.5001 62.7999 30.5H120.201ZM143.61 83.143C130.647 87.2376 112.202 91.5 91.5004 91.5C70.7985 91.5 52.3536 87.23 39.3911 83.143L31.3086 99.308C30.7772 100.368 30.5005 101.538 30.5004 102.724V122C30.5004 124.022 31.3037 125.962 32.7337 127.392C34.1637 128.822 36.1031 129.625 38.1254 129.625H144.875C146.898 129.625 148.837 128.822 150.267 127.392C151.697 125.962 152.5 124.022 152.5 122V102.724C152.499 101.541 152.222 100.374 151.692 99.3156L143.61 83.143ZM57.1879 99.125C60.2213 99.125 63.1305 100.33 65.2754 102.475C67.4204 104.62 68.6254 107.529 68.6254 110.562C68.6254 113.596 67.4204 116.505 65.2754 118.65C63.1305 120.795 60.2213 122 57.1879 122C54.1545 122 51.2453 120.795 49.1003 118.65C46.9554 116.505 45.7504 113.596 45.7504 110.562C45.7504 107.529 46.9554 104.62 49.1003 102.475C51.2453 100.33 54.1545 99.125 57.1879 99.125ZM125.813 99.125C128.846 99.125 131.755 100.33 133.9 102.475C136.045 104.62 137.25 107.529 137.25 110.562C137.25 113.596 136.045 116.505 133.9 118.65C131.755 120.795 128.846 122 125.813 122C122.779 122 119.87 120.795 117.725 118.65C115.58 116.505 114.375 113.596 114.375 110.562C114.375 107.529 115.58 104.62 117.725 102.475C119.87 100.33 122.779 99.125 125.813 99.125ZM120.201 45.75H62.7999C61.3842 45.7508 59.9967 46.1456 58.7927 46.8903C57.5888 47.6351 56.6159 48.7003 55.9831 49.9666L46.2994 69.3112C58.1029 72.8569 74.0086 76.25 91.5004 76.25C108.992 76.25 124.898 72.8569 136.694 69.3112L127.018 49.9666C126.385 48.7003 125.412 47.6351 124.208 46.8903C123.004 46.1456 121.617 45.7508 120.201 45.75Z" fill="#FFD233"/>
</g>
<defs>
<clipPath id="clip0_11003_45">
<rect width="183" height="183" fill="white"/>
</clipPath>
</defs>
</svg>
