<svg width="183" height="183" viewBox="0 0 183 183" fill="none" xmlns="http://www.w3.org/2000/svg">
<g clip-path="url(#clip0_11003_29)">
<path fill-rule="evenodd" clip-rule="evenodd" d="M101.801 23.3627C100.857 22.98 99.8464 22.7902 98.8281 22.8045C97.8099 22.8188 96.8048 23.0369 95.8723 23.4459C94.9397 23.855 94.0985 24.4467 93.3983 25.1862C92.6982 25.9257 92.1532 26.7979 91.7957 27.7514C91.4381 28.7049 91.2752 29.7204 91.3165 30.7379C91.3577 31.7554 91.6024 32.7543 92.0361 33.6757C92.4697 34.5971 93.0835 35.4223 93.8413 36.1026C94.5991 36.7829 95.4855 37.3045 96.4481 37.6367L99.1245 38.6432V62.7992L20.8691 84.1492C19.0923 84.6393 17.5531 85.7564 16.5364 87.2938C15.5197 88.8312 15.0943 90.6849 15.339 92.5118C15.5836 94.3386 16.4817 96.0151 17.8671 97.2308C19.2524 98.4466 21.0313 99.1194 22.8745 99.1247V144.875C22.8745 148.919 24.4812 152.798 27.3411 155.658C30.201 158.518 34.0799 160.125 38.1245 160.125H144.874C148.919 160.125 152.798 158.518 155.658 155.658C158.518 152.798 160.124 148.919 160.124 144.875V60.9997C161.91 60.9979 163.637 60.3699 165.007 59.2251C166.377 58.0804 167.301 56.4914 167.62 54.735C167.938 52.9786 167.63 51.1661 166.75 49.6134C165.869 48.0606 164.472 46.866 162.801 46.2377L101.801 23.3627ZM144.874 55.7994L114.374 44.3619V144.875H144.874V55.7994ZM76.2495 122V144.875H99.1245V78.6135L38.1245 95.2359V144.875H60.9995V122C60.9995 119.977 61.8028 118.038 63.2328 116.608C64.6628 115.178 66.6022 114.375 68.6245 114.375C70.6468 114.375 72.5862 115.178 74.0162 116.608C75.4461 118.038 76.2495 119.977 76.2495 122ZM118.187 83.8747C118.187 81.8524 118.99 79.913 120.42 78.483C121.85 77.053 123.79 76.2497 125.812 76.2497H133.437C135.459 76.2497 137.399 77.053 138.829 78.483C140.259 79.913 141.062 81.8524 141.062 83.8747C141.062 85.897 140.259 87.8364 138.829 89.2664C137.399 90.6964 135.459 91.4997 133.437 91.4997H125.812C123.79 91.4997 121.85 90.6964 120.42 89.2664C118.99 87.8364 118.187 85.897 118.187 83.8747ZM125.812 106.75C123.79 106.75 121.85 107.553 120.42 108.983C118.99 110.413 118.187 112.352 118.187 114.375C118.187 116.397 118.99 118.336 120.42 119.766C121.85 121.196 123.79 122 125.812 122H133.437C135.459 122 137.399 121.196 138.829 119.766C140.259 118.336 141.062 116.397 141.062 114.375C141.062 112.352 140.259 110.413 138.829 108.983C137.399 107.553 135.459 106.75 133.437 106.75H125.812Z" fill="#699BF7"/>
</g>
<defs>
<clipPath id="clip0_11003_29">
<rect width="183" height="183" fill="white"/>
</clipPath>
</defs>
</svg>
