<svg width="183" height="183" viewBox="0 0 183 183" fill="none" xmlns="http://www.w3.org/2000/svg">
<g clip-path="url(#clip0_11003_49)">
<path fill-rule="evenodd" clip-rule="evenodd" d="M91.5 15.25C133.613 15.25 167.75 49.3871 167.75 91.5C167.75 133.613 133.613 167.75 91.5 167.75C49.3871 167.75 15.25 133.613 15.25 91.5C15.25 49.3871 49.3871 15.25 91.5 15.25ZM91.5 30.5C75.3218 30.5 59.8062 36.9268 48.3665 48.3665C36.9268 59.8062 30.5 75.3218 30.5 91.5C30.5 107.678 36.9268 123.194 48.3665 134.634C59.8062 146.073 75.3218 152.5 91.5 152.5C107.678 152.5 123.194 146.073 134.634 134.634C146.073 123.194 152.5 107.678 152.5 91.5C152.5 75.3218 146.073 59.8062 134.634 48.3665C123.194 36.9268 107.678 30.5 91.5 30.5ZM68.3505 65.9562C68.5191 64.5535 69.0123 63.2093 69.7911 62.0305C70.5699 60.8517 71.6128 59.8706 72.837 59.1653C74.0612 58.4599 75.433 58.0497 76.8434 57.9671C78.2538 57.8846 79.6641 58.1319 80.9623 58.6896L83.4404 59.78L86.7954 61.3202L89.4565 62.6089L92.4302 64.1034L95.709 65.8038L99.2317 67.7176L102.999 69.8526L104.897 70.9582L108.473 73.1085L111.737 75.152L116.037 77.958L119.575 80.3827L123.045 82.8837L123.677 83.3489C128.519 86.986 128.558 94.245 123.685 97.905L121.527 99.4986L118.531 101.603L114.749 104.157L111.798 106.064L108.519 108.123L104.912 110.28C104.287 110.654 103.647 111.028 102.991 111.401L99.1936 113.552L95.6404 115.481L92.3616 117.189L89.3879 118.683L85.5373 120.528L82.4872 121.908L80.947 122.58C79.6494 123.133 78.2409 123.376 76.8329 123.291C75.4249 123.206 74.056 122.794 72.8346 122.089C71.6133 121.383 70.5729 120.402 69.796 119.225C69.019 118.048 68.5267 116.706 68.3581 115.305L67.9464 111.5L67.7176 108.954L67.3974 104.386L67.2144 100.879L67.0771 97.0205L67.0009 92.8344V88.4195L67.0771 84.241L67.2144 80.3827L67.3974 76.8752L67.7176 72.3079L68.259 66.7416L68.3505 65.9562ZM82.716 76.2881L82.5101 79.849L82.35 83.8521L82.2585 88.2746V92.9869L82.35 97.4094L82.5025 101.413L82.716 104.973L85.888 103.372L87.6112 102.472L91.3322 100.475L95.3735 98.1948L99.3537 95.8386L101.199 94.7101L104.584 92.5751L107.558 90.6307L104.569 88.6711L101.184 86.5285L97.4018 84.241C95.4042 83.0585 93.3884 81.907 91.3551 80.7869L87.6341 78.7891L84.2639 77.0582L82.716 76.2881Z" fill="#4ECB71"/>
</g>
<defs>
<clipPath id="clip0_11003_49">
<rect width="183" height="183" fill="white"/>
</clipPath>
</defs>
</svg>
