<svg width="183" height="183" viewBox="0 0 183 183" fill="none" xmlns="http://www.w3.org/2000/svg">
<path fill-rule="evenodd" clip-rule="evenodd" d="M66.0859 15.25C76.3034 15.25 85.4381 19.886 91.5 27.1755C94.5975 23.44 98.4813 20.4342 102.874 18.3728C107.267 16.3113 112.061 15.245 116.914 15.25H117.425C122.683 15.25 127.725 17.3387 131.443 21.0566C135.161 24.7745 137.25 29.8171 137.25 35.075C137.25 38.8875 136.427 42.4941 134.963 45.75H137.25C143.317 45.75 149.135 48.1601 153.425 52.45C157.715 56.7398 160.125 62.5582 160.125 68.625V137.25C160.125 143.317 157.715 149.135 153.425 153.425C149.135 157.715 143.317 160.125 137.25 160.125H45.75C39.6832 160.125 33.8648 157.715 29.5749 153.425C25.285 149.135 22.875 143.317 22.875 137.25V68.625C22.875 62.5582 25.285 56.7398 29.5749 52.45C33.8648 48.1601 39.6832 45.75 45.75 45.75H48.0375C46.5735 42.4941 45.75 38.8875 45.75 35.075C45.75 29.8171 47.8387 24.7745 51.5566 21.0566C55.2745 17.3387 60.3171 15.25 65.575 15.25H66.0859ZM144.875 106.75H99.125V144.875H137.25C139.118 144.875 140.92 144.189 142.316 142.948C143.711 141.707 144.603 139.997 144.822 138.142L144.875 137.25V106.75ZM83.875 106.75H38.125V137.25C38.125 139.272 38.9283 141.212 40.3583 142.642C41.7883 144.072 43.7277 144.875 45.75 144.875H83.875V106.75ZM83.875 61H45.75C43.8824 61.0003 42.0798 61.6859 40.6842 62.927C39.2885 64.168 38.3969 65.8781 38.1784 67.7329L38.125 68.625V91.5H83.875V61ZM137.25 61H99.125V91.5H144.875V68.625C144.875 66.6027 144.072 64.6633 142.642 63.2333C141.212 61.8034 139.272 61 137.25 61ZM66.0859 30.5H65.575C64.3616 30.5 63.198 30.982 62.34 31.84C61.482 32.698 61 33.8617 61 35.075C61 37.9062 62.1247 40.6214 64.1266 42.6234C66.1286 44.6253 68.8438 45.75 71.675 45.75H83.692C83.0797 41.5153 80.9622 37.6429 77.7274 34.8422C74.4926 32.0415 70.3646 30.5 66.0859 30.5ZM117.425 30.5H116.914C108.374 30.5 101.245 36.5085 99.5291 44.53L99.3004 45.75H111.325C114.156 45.75 116.871 44.6253 118.873 42.6234C120.875 40.6214 122 37.9062 122 35.075C122 33.99 121.614 32.9404 120.911 32.1135C120.209 31.2867 119.235 30.7364 118.165 30.561L117.425 30.5Z" fill="#F24E1E"/>
</svg>
