<svg width="183" height="183" viewBox="0 0 183 183" fill="none" xmlns="http://www.w3.org/2000/svg">
<path d="M64.8893 95.16C63.3813 95.16 61.907 95.6072 60.6531 96.4451C59.3992 97.2829 58.4219 98.4738 57.8448 99.8671C57.2676 101.26 57.1166 102.793 57.4108 104.273C57.7051 105.752 58.4313 107.11 59.4976 108.177C60.564 109.243 61.9227 109.969 63.4018 110.264C64.8809 110.558 66.414 110.407 67.8073 109.83C69.2006 109.252 70.3914 108.275 71.2293 107.021C72.0671 105.767 72.5143 104.293 72.5143 102.785C72.5143 100.763 71.711 98.8233 70.281 97.3933C68.8511 95.9634 66.9116 95.16 64.8893 95.16ZM64.8893 61C63.3813 61 61.907 61.4472 60.6531 62.2851C59.3992 63.1229 58.4219 64.3138 57.8448 65.7071C57.2676 67.1004 57.1166 68.6335 57.4108 70.1126C57.7051 71.5917 58.4313 72.9503 59.4976 74.0167C60.564 75.0831 61.9227 75.8093 63.4018 76.1035C64.8809 76.3977 66.414 76.2467 67.8073 75.6696C69.2006 75.0925 70.3914 74.1152 71.2293 72.8613C72.0671 71.6073 72.5143 70.1331 72.5143 68.625C72.5143 66.6028 71.711 64.6633 70.281 63.2333C68.8511 61.8034 66.9116 61 64.8893 61ZM91.5006 76.25C89.4783 76.25 87.5389 77.0534 86.1089 78.4833C84.6789 79.9133 83.8756 81.8528 83.8756 83.875V91.5C83.8756 93.5223 84.6789 95.4618 86.1089 96.8917C87.5389 98.3217 89.4783 99.125 91.5006 99.125C93.5229 99.125 95.4623 98.3217 96.8923 96.8917C98.3222 95.4618 99.1256 93.5223 99.1256 91.5V83.875C99.1256 81.8528 98.3222 79.9133 96.8923 78.4833C95.4623 77.0534 93.5229 76.25 91.5006 76.25ZM156.313 65.3463C153.683 63.8328 150.777 62.8579 147.767 62.4782C144.756 62.0986 141.699 62.3219 138.776 63.135C135.733 63.9501 132.899 65.4059 130.464 67.405L42.0143 16.2413C40.8552 15.572 39.5403 15.2197 38.2018 15.2197C36.8634 15.2197 35.5485 15.572 34.3893 16.2413C33.2115 16.9033 32.2308 17.8665 31.5475 19.0321C30.8642 20.1977 30.5029 21.5239 30.5006 22.875V123.296C26.0007 124.814 22.0991 127.722 19.3583 131.6C16.6176 135.478 15.1792 140.127 15.2506 144.875C15.2485 150.838 17.5746 156.565 21.7334 160.838C25.8923 165.111 31.5551 167.591 37.5156 167.75H41.9381C66.9232 167.691 91.4479 161.023 113.022 148.421C134.597 135.819 152.452 117.733 164.777 95.9988C167.623 90.7985 168.34 84.6963 166.775 78.9782C165.21 73.2602 161.487 68.3728 156.389 65.3463H156.313ZM45.7506 36.0663L121.162 79.605C112.796 92.0888 101.611 102.43 88.5115 109.795C75.4118 117.159 60.764 121.34 45.7506 122V36.0663ZM151.509 88.5263C140.19 108.471 123.658 124.961 103.685 136.23C83.7122 147.499 61.05 153.123 38.1256 152.5C36.1033 152.5 34.1639 151.697 32.7339 150.267C31.3039 148.837 30.5006 146.897 30.5006 144.875C30.4946 143.853 30.694 142.841 31.087 141.898C31.48 140.955 32.0584 140.1 32.7881 139.385C34.2206 138.004 36.136 137.238 38.1256 137.25H42.0143C61.5932 137.242 80.8188 132.035 97.7257 122.162C114.633 112.288 128.614 98.1021 138.242 81.0538C138.705 80.2174 139.337 79.4869 140.099 78.9092C140.86 78.3314 141.734 77.9191 142.664 77.6988C144.587 77.1711 146.64 77.4174 148.383 78.385C150.133 79.3254 151.446 80.9112 152.044 82.8052C152.642 84.6992 152.478 86.7518 151.586 88.5263H151.509Z" fill="#D27C2C"/>
</svg>
