<svg width="200" height="180" viewBox="0 0 200 180" fill="none" xmlns="http://www.w3.org/2000/svg">
<path d="M95 1.08917e-07C104.83 0.000757481 114.39 3.21906 122.22 9.1634C130.049 15.1077 135.718 23.4514 138.36 32.92L138.88 34.97L157.58 30.3C158.947 29.9598 160.37 29.9122 161.757 30.1602C163.143 30.4083 164.462 30.9465 165.626 31.7395C166.79 32.5325 167.773 33.5625 168.511 34.7621C169.25 35.9616 169.726 37.3035 169.91 38.7L170 40V58.1C175.638 63.5053 180.258 69.88 183.64 76.92L185.02 80H190C192.449 80.0003 194.813 80.8996 196.644 82.5272C198.474 84.1547 199.643 86.3975 199.93 88.83L200 90V120C200 121.646 199.594 123.266 198.818 124.718C198.042 126.169 196.919 127.407 195.55 128.32L194.47 128.94L182.79 134.79C178.008 144.041 171.082 152.013 162.59 158.04L160 159.78V170C160 172.449 159.1 174.813 157.473 176.644C155.845 178.474 153.603 179.643 151.17 179.93L150 180H120C117.551 180 115.187 179.1 113.356 177.473C111.526 175.845 110.357 173.603 110.07 171.17L110 170H100C99.9997 172.449 99.1004 174.813 97.4728 176.644C95.8453 178.474 93.6025 179.643 91.17 179.93L90 180H60C57.5507 180 55.1866 179.1 53.3563 177.473C51.5259 175.845 50.3566 173.603 50.07 171.17L50 170V159.78C42.7758 155.161 36.5355 149.161 31.6377 142.123C26.7399 135.085 23.281 127.149 21.46 118.77C15.5633 117.015 10.3481 113.491 6.52053 108.674C2.69291 103.857 0.437648 97.9807 0.0600004 91.84L0 90V85C0.00282707 82.4512 0.978791 79.9997 2.72848 78.1463C4.47818 76.293 6.86953 75.1776 9.41395 75.0283C11.9584 74.8789 14.4638 75.7067 16.4183 77.3426C18.3729 78.9785 19.629 81.299 19.93 83.83L20 85V90C20 91.48 20.32 92.89 20.9 94.15C22.4263 85.1471 25.8313 76.5665 30.8933 68.9667C35.9553 61.3668 42.5608 54.918 50.28 50.04C49.5705 43.7448 50.1981 37.3708 52.1219 31.3349C54.0456 25.2991 57.2221 19.7374 61.4435 15.0138C65.6649 10.2903 70.836 6.51121 76.6187 3.92396C82.4013 1.33671 88.665 -0.000440627 95 1.08917e-07ZM150 52.8L122.42 59.7L121.22 59.93L120 60H85C74.8887 59.9933 65.0698 63.3922 57.1265 69.6486C49.1832 75.9049 43.5785 84.6542 41.2159 94.4856C38.8534 104.317 39.8708 114.658 44.104 123.84C48.3373 133.022 55.5397 140.512 64.55 145.1C66.0017 145.842 67.25 146.928 68.1859 148.263C69.1219 149.598 69.7172 151.142 69.92 152.76L70 154V160H80C80.0003 157.551 80.8996 155.187 82.5272 153.356C84.1547 151.526 86.3975 150.357 88.83 150.07L90 150H120C122.449 150 124.813 150.9 126.644 152.527C128.474 154.155 129.643 156.397 129.93 158.83L130 160H140V154C140.001 152.159 140.51 150.353 141.472 148.783C142.434 147.212 143.81 145.938 145.45 145.1C154.626 140.402 161.922 132.711 166.13 123.3C166.88 121.617 168.081 120.173 169.6 119.13L170.79 118.43L180 113.82V100H177.93C175.753 99.9994 173.635 99.288 171.899 97.9741C170.162 96.6601 168.902 94.8153 168.31 92.72C165.808 83.923 160.688 76.0961 153.63 70.28C151.672 68.6621 150.402 66.3596 150.08 63.84L150 62.57V52.8ZM140 80C142.652 80 145.196 81.0536 147.071 82.9289C148.946 84.8043 150 87.3478 150 90C150 92.6522 148.946 95.1957 147.071 97.0711C145.196 98.9464 142.652 100 140 100C137.348 100 134.804 98.9464 132.929 97.0711C131.054 95.1957 130 92.6522 130 90C130 87.3478 131.054 84.8043 132.929 82.9289C134.804 81.0536 137.348 80 140 80ZM95 20C88.9429 20 83.0918 22.199 78.5341 26.1884C73.9763 30.1778 71.022 35.6862 70.22 41.69C75.0661 40.5646 80.025 39.9976 85 40H118.77L119.47 39.83C118.284 34.2196 115.206 29.1874 110.75 25.577C106.295 21.9666 100.734 19.9976 95 20Z" fill="#9747FF"/>
</svg>
